<mxfile host="app.diagrams.net" modified="2023-07-16T13:07:32.260Z" agent="Mozilla/5.0 (Windows NT 10.0; Win64; x64) AppleWebKit/537.36 (KHTML, like Gecko) Chrome/114.0.0.0 Safari/537.36" etag="gpbPoKsgAixgMnQpjBPn" version="21.6.2" type="github">
  <diagram name="第 1 页" id="0Yfzo06Rg9hAzA8gX3MO">
    <mxGraphModel dx="3880" dy="1858" grid="1" gridSize="10" guides="1" tooltips="1" connect="1" arrows="1" fold="1" page="1" pageScale="1" pageWidth="827" pageHeight="1169" math="0" shadow="0">
      <root>
        <mxCell id="0" />
        <mxCell id="1" parent="0" />
        <mxCell id="XpuTqxb-VDtBdwR817ZW-78" value="" style="group" vertex="1" connectable="0" parent="1">
          <mxGeometry x="75" y="980" width="695" height="450" as="geometry" />
        </mxCell>
        <mxCell id="XpuTqxb-VDtBdwR817ZW-18" value="&lt;font color=&quot;#0000ff&quot;&gt;&lt;span style=&quot;font-size: 17px;&quot;&gt;&lt;b&gt;登录界面&lt;/b&gt;&lt;/span&gt;&lt;/font&gt;" style="text;html=1;strokeColor=none;fillColor=none;align=center;verticalAlign=middle;whiteSpace=wrap;rounded=0;" vertex="1" parent="XpuTqxb-VDtBdwR817ZW-78">
          <mxGeometry width="90" height="30" as="geometry" />
        </mxCell>
        <mxCell id="XpuTqxb-VDtBdwR817ZW-20" value="" style="rounded=0;whiteSpace=wrap;html=1;" vertex="1" parent="XpuTqxb-VDtBdwR817ZW-78">
          <mxGeometry x="5" y="60" width="690" height="390" as="geometry" />
        </mxCell>
        <mxCell id="XpuTqxb-VDtBdwR817ZW-22" value="" style="rounded=0;whiteSpace=wrap;html=1;" vertex="1" parent="XpuTqxb-VDtBdwR817ZW-78">
          <mxGeometry x="170" y="165" width="360" height="180" as="geometry" />
        </mxCell>
        <mxCell id="XpuTqxb-VDtBdwR817ZW-23" value="二维码" style="whiteSpace=wrap;html=1;aspect=fixed;" vertex="1" parent="XpuTqxb-VDtBdwR817ZW-78">
          <mxGeometry x="205" y="190" width="111.5" height="111.5" as="geometry" />
        </mxCell>
        <mxCell id="XpuTqxb-VDtBdwR817ZW-24" value="" style="endArrow=none;html=1;rounded=0;entryX=0.5;entryY=0;entryDx=0;entryDy=0;exitX=0.5;exitY=1;exitDx=0;exitDy=0;" edge="1" parent="XpuTqxb-VDtBdwR817ZW-78" source="XpuTqxb-VDtBdwR817ZW-22" target="XpuTqxb-VDtBdwR817ZW-22">
          <mxGeometry width="50" height="50" relative="1" as="geometry">
            <mxPoint x="305" y="250" as="sourcePoint" />
            <mxPoint x="355" y="200" as="targetPoint" />
          </mxGeometry>
        </mxCell>
        <mxCell id="XpuTqxb-VDtBdwR817ZW-25" value="二维码登录" style="text;html=1;strokeColor=none;fillColor=none;align=center;verticalAlign=middle;whiteSpace=wrap;rounded=0;" vertex="1" parent="XpuTqxb-VDtBdwR817ZW-78">
          <mxGeometry x="224.25" y="310" width="74" height="30" as="geometry" />
        </mxCell>
        <mxCell id="XpuTqxb-VDtBdwR817ZW-27" value="" style="rounded=1;whiteSpace=wrap;html=1;" vertex="1" parent="XpuTqxb-VDtBdwR817ZW-78">
          <mxGeometry x="205" y="170" width="20" height="20" as="geometry" />
        </mxCell>
        <mxCell id="XpuTqxb-VDtBdwR817ZW-28" value="" style="rounded=1;whiteSpace=wrap;html=1;" vertex="1" parent="XpuTqxb-VDtBdwR817ZW-78">
          <mxGeometry x="225" y="170" width="20" height="20" as="geometry" />
        </mxCell>
        <mxCell id="XpuTqxb-VDtBdwR817ZW-29" value="" style="rounded=0;whiteSpace=wrap;html=1;" vertex="1" parent="XpuTqxb-VDtBdwR817ZW-78">
          <mxGeometry x="395" y="202" width="120" height="21" as="geometry" />
        </mxCell>
        <mxCell id="XpuTqxb-VDtBdwR817ZW-30" value="账号" style="text;html=1;strokeColor=none;fillColor=none;align=center;verticalAlign=middle;whiteSpace=wrap;rounded=0;" vertex="1" parent="XpuTqxb-VDtBdwR817ZW-78">
          <mxGeometry x="345" y="198" width="60" height="30" as="geometry" />
        </mxCell>
        <mxCell id="XpuTqxb-VDtBdwR817ZW-31" value="密码" style="text;html=1;strokeColor=none;fillColor=none;align=center;verticalAlign=middle;whiteSpace=wrap;rounded=0;" vertex="1" parent="XpuTqxb-VDtBdwR817ZW-78">
          <mxGeometry x="345" y="233" width="60" height="30" as="geometry" />
        </mxCell>
        <mxCell id="XpuTqxb-VDtBdwR817ZW-32" value="" style="rounded=0;whiteSpace=wrap;html=1;" vertex="1" parent="XpuTqxb-VDtBdwR817ZW-78">
          <mxGeometry x="395" y="237.25" width="120" height="21" as="geometry" />
        </mxCell>
        <mxCell id="XpuTqxb-VDtBdwR817ZW-33" value="&lt;font face=&quot;Times New Roman&quot; style=&quot;font-size: 11px;&quot;&gt;没有账号？点击注册&lt;/font&gt;" style="text;html=1;strokeColor=none;fillColor=none;align=center;verticalAlign=middle;whiteSpace=wrap;rounded=0;" vertex="1" parent="XpuTqxb-VDtBdwR817ZW-78">
          <mxGeometry x="395" y="270" width="120" height="19" as="geometry" />
        </mxCell>
        <mxCell id="XpuTqxb-VDtBdwR817ZW-36" value="登录" style="rounded=0;whiteSpace=wrap;html=1;" vertex="1" parent="XpuTqxb-VDtBdwR817ZW-78">
          <mxGeometry x="465" y="300" width="50" height="23.5" as="geometry" />
        </mxCell>
        <mxCell id="XpuTqxb-VDtBdwR817ZW-50" value="&lt;font color=&quot;#ff0000&quot;&gt;先出现登录页面&lt;/font&gt;" style="text;html=1;strokeColor=none;fillColor=none;align=center;verticalAlign=middle;whiteSpace=wrap;rounded=0;" vertex="1" parent="XpuTqxb-VDtBdwR817ZW-78">
          <mxGeometry x="105" width="60" height="30" as="geometry" />
        </mxCell>
        <mxCell id="XpuTqxb-VDtBdwR817ZW-52" value="" style="endArrow=classic;html=1;rounded=0;exitX=1;exitY=0.25;exitDx=0;exitDy=0;fontColor=#ff0000;strokeColor=#ff0000;" edge="1" parent="XpuTqxb-VDtBdwR817ZW-78" source="XpuTqxb-VDtBdwR817ZW-27">
          <mxGeometry width="50" height="50" relative="1" as="geometry">
            <mxPoint x="175" y="150" as="sourcePoint" />
            <mxPoint x="275" y="40" as="targetPoint" />
          </mxGeometry>
        </mxCell>
        <mxCell id="XpuTqxb-VDtBdwR817ZW-55" value="&lt;font color=&quot;#ff0000&quot;&gt;显示允许扫码登录的登陆方式（QQ，微信）要点击对应图标按钮可以切换对应的二维码&lt;/font&gt;" style="text;html=1;strokeColor=none;fillColor=none;align=left;verticalAlign=middle;whiteSpace=wrap;rounded=0;" vertex="1" parent="XpuTqxb-VDtBdwR817ZW-78">
          <mxGeometry x="256.5" width="168.5" height="30" as="geometry" />
        </mxCell>
        <mxCell id="XpuTqxb-VDtBdwR817ZW-56" value="&lt;font color=&quot;#ff0000&quot;&gt;二维码展示，扫码后要进行交互（显示已扫码，请确认登陆...）等&lt;/font&gt;" style="text;html=1;strokeColor=none;fillColor=none;align=left;verticalAlign=middle;whiteSpace=wrap;rounded=0;" vertex="1" parent="XpuTqxb-VDtBdwR817ZW-78">
          <mxGeometry x="55" y="207" width="100" height="30" as="geometry" />
        </mxCell>
        <mxCell id="XpuTqxb-VDtBdwR817ZW-57" value="" style="endArrow=classic;html=1;rounded=0;exitX=0.75;exitY=1;exitDx=0;exitDy=0;" edge="1" parent="XpuTqxb-VDtBdwR817ZW-78" source="XpuTqxb-VDtBdwR817ZW-56" target="XpuTqxb-VDtBdwR817ZW-25">
          <mxGeometry width="50" height="50" relative="1" as="geometry">
            <mxPoint x="175" y="150" as="sourcePoint" />
            <mxPoint x="225" y="100" as="targetPoint" />
          </mxGeometry>
        </mxCell>
        <mxCell id="XpuTqxb-VDtBdwR817ZW-58" value="显示在这里" style="edgeLabel;html=1;align=center;verticalAlign=middle;resizable=0;points=[];" vertex="1" connectable="0" parent="XpuTqxb-VDtBdwR817ZW-57">
          <mxGeometry x="0.3754" y="-2" relative="1" as="geometry">
            <mxPoint as="offset" />
          </mxGeometry>
        </mxCell>
        <mxCell id="XpuTqxb-VDtBdwR817ZW-59" value="&lt;font color=&quot;#ff0000&quot;&gt;点击注册蓝色字体，可以跳转到注册页面&lt;/font&gt;" style="text;html=1;strokeColor=none;fillColor=none;align=center;verticalAlign=middle;whiteSpace=wrap;rounded=0;" vertex="1" parent="XpuTqxb-VDtBdwR817ZW-78">
          <mxGeometry x="545" y="259" width="110" height="30" as="geometry" />
        </mxCell>
        <mxCell id="XpuTqxb-VDtBdwR817ZW-60" value="&lt;font color=&quot;#ff0000&quot;&gt;登录按钮跳转到已登录的主页面&lt;/font&gt;" style="text;html=1;strokeColor=none;fillColor=none;align=center;verticalAlign=middle;whiteSpace=wrap;rounded=0;" vertex="1" parent="XpuTqxb-VDtBdwR817ZW-78">
          <mxGeometry x="465" y="360" width="90" height="30" as="geometry" />
        </mxCell>
        <mxCell id="XpuTqxb-VDtBdwR817ZW-61" value="" style="endArrow=classic;html=1;rounded=0;entryX=0.5;entryY=1;entryDx=0;entryDy=0;exitX=0.385;exitY=0.033;exitDx=0;exitDy=0;exitPerimeter=0;" edge="1" parent="XpuTqxb-VDtBdwR817ZW-78" source="XpuTqxb-VDtBdwR817ZW-60" target="XpuTqxb-VDtBdwR817ZW-36">
          <mxGeometry width="50" height="50" relative="1" as="geometry">
            <mxPoint x="435" y="370" as="sourcePoint" />
            <mxPoint x="485" y="320" as="targetPoint" />
          </mxGeometry>
        </mxCell>
        <mxCell id="XpuTqxb-VDtBdwR817ZW-62" value="" style="endArrow=classic;html=1;rounded=0;entryX=1;entryY=0.5;entryDx=0;entryDy=0;exitX=0;exitY=0.5;exitDx=0;exitDy=0;" edge="1" parent="XpuTqxb-VDtBdwR817ZW-78" source="XpuTqxb-VDtBdwR817ZW-59" target="XpuTqxb-VDtBdwR817ZW-33">
          <mxGeometry width="50" height="50" relative="1" as="geometry">
            <mxPoint x="585" y="240" as="sourcePoint" />
            <mxPoint x="635" y="190" as="targetPoint" />
          </mxGeometry>
        </mxCell>
        <mxCell id="XpuTqxb-VDtBdwR817ZW-86" value="" style="group" vertex="1" connectable="0" parent="1">
          <mxGeometry x="75" y="1460" width="695" height="440" as="geometry" />
        </mxCell>
        <mxCell id="XpuTqxb-VDtBdwR817ZW-21" value="&lt;font color=&quot;#0000ff&quot;&gt;&lt;span style=&quot;font-size: 17px;&quot;&gt;&lt;b&gt;注册界面&lt;/b&gt;&lt;/span&gt;&lt;/font&gt;" style="text;html=1;strokeColor=none;fillColor=none;align=center;verticalAlign=middle;whiteSpace=wrap;rounded=0;" vertex="1" parent="XpuTqxb-VDtBdwR817ZW-86">
          <mxGeometry width="90" height="30" as="geometry" />
        </mxCell>
        <mxCell id="XpuTqxb-VDtBdwR817ZW-37" value="" style="rounded=0;whiteSpace=wrap;html=1;" vertex="1" parent="XpuTqxb-VDtBdwR817ZW-86">
          <mxGeometry x="5" y="50" width="690" height="390" as="geometry" />
        </mxCell>
        <mxCell id="XpuTqxb-VDtBdwR817ZW-38" value="" style="rounded=0;whiteSpace=wrap;html=1;" vertex="1" parent="XpuTqxb-VDtBdwR817ZW-86">
          <mxGeometry x="172" y="130" width="360" height="240" as="geometry" />
        </mxCell>
        <mxCell id="XpuTqxb-VDtBdwR817ZW-39" value="" style="rounded=0;whiteSpace=wrap;html=1;" vertex="1" parent="XpuTqxb-VDtBdwR817ZW-86">
          <mxGeometry x="285" y="155" width="187" height="20" as="geometry" />
        </mxCell>
        <mxCell id="XpuTqxb-VDtBdwR817ZW-40" value="邮箱/手机号" style="text;html=1;strokeColor=none;fillColor=none;align=center;verticalAlign=middle;whiteSpace=wrap;rounded=0;" vertex="1" parent="XpuTqxb-VDtBdwR817ZW-86">
          <mxGeometry x="205" y="150" width="70" height="30" as="geometry" />
        </mxCell>
        <mxCell id="XpuTqxb-VDtBdwR817ZW-41" value="验证码" style="text;html=1;strokeColor=none;fillColor=none;align=center;verticalAlign=middle;whiteSpace=wrap;rounded=0;" vertex="1" parent="XpuTqxb-VDtBdwR817ZW-86">
          <mxGeometry x="205" y="294" width="60" height="30" as="geometry" />
        </mxCell>
        <mxCell id="XpuTqxb-VDtBdwR817ZW-42" value="" style="rounded=0;whiteSpace=wrap;html=1;" vertex="1" parent="XpuTqxb-VDtBdwR817ZW-86">
          <mxGeometry x="285" y="299" width="90" height="20" as="geometry" />
        </mxCell>
        <mxCell id="XpuTqxb-VDtBdwR817ZW-43" value="校验码" style="text;html=1;strokeColor=none;fillColor=none;align=center;verticalAlign=middle;whiteSpace=wrap;rounded=0;" vertex="1" parent="XpuTqxb-VDtBdwR817ZW-86">
          <mxGeometry x="210" y="190" width="60" height="30" as="geometry" />
        </mxCell>
        <mxCell id="XpuTqxb-VDtBdwR817ZW-45" value="" style="rounded=0;whiteSpace=wrap;html=1;" vertex="1" parent="XpuTqxb-VDtBdwR817ZW-86">
          <mxGeometry x="287" y="190" width="90" height="30" as="geometry" />
        </mxCell>
        <mxCell id="XpuTqxb-VDtBdwR817ZW-46" value="看不清，换一个" style="text;html=1;strokeColor=none;fillColor=none;align=center;verticalAlign=middle;whiteSpace=wrap;rounded=0;" vertex="1" parent="XpuTqxb-VDtBdwR817ZW-86">
          <mxGeometry x="382.5" y="190" width="95" height="30" as="geometry" />
        </mxCell>
        <mxCell id="XpuTqxb-VDtBdwR817ZW-47" value="获取验证码" style="rounded=0;whiteSpace=wrap;html=1;" vertex="1" parent="XpuTqxb-VDtBdwR817ZW-86">
          <mxGeometry x="395" y="301" width="70" height="16" as="geometry" />
        </mxCell>
        <mxCell id="XpuTqxb-VDtBdwR817ZW-48" value="注册" style="rounded=0;whiteSpace=wrap;html=1;" vertex="1" parent="XpuTqxb-VDtBdwR817ZW-86">
          <mxGeometry x="285" y="330" width="70" height="16" as="geometry" />
        </mxCell>
        <mxCell id="XpuTqxb-VDtBdwR817ZW-63" value="&lt;font color=&quot;#ff0000&quot;&gt;通过登陆页面跳转&lt;/font&gt;" style="text;html=1;strokeColor=none;fillColor=none;align=center;verticalAlign=middle;whiteSpace=wrap;rounded=0;" vertex="1" parent="XpuTqxb-VDtBdwR817ZW-86">
          <mxGeometry x="98" y="10" width="107" height="30" as="geometry" />
        </mxCell>
        <mxCell id="XpuTqxb-VDtBdwR817ZW-64" value="&lt;font color=&quot;#ff0000&quot;&gt;接收文本框输入之后要判断一下是邮箱还是手机号，发送对应验证码&lt;/font&gt;" style="text;html=1;strokeColor=none;fillColor=none;align=left;verticalAlign=middle;whiteSpace=wrap;rounded=0;" vertex="1" parent="XpuTqxb-VDtBdwR817ZW-86">
          <mxGeometry x="325" y="80" width="140" height="30" as="geometry" />
        </mxCell>
        <mxCell id="XpuTqxb-VDtBdwR817ZW-65" value="密码" style="text;html=1;strokeColor=none;fillColor=none;align=center;verticalAlign=middle;whiteSpace=wrap;rounded=0;" vertex="1" parent="XpuTqxb-VDtBdwR817ZW-86">
          <mxGeometry x="205" y="228" width="60" height="30" as="geometry" />
        </mxCell>
        <mxCell id="XpuTqxb-VDtBdwR817ZW-66" value="" style="rounded=0;whiteSpace=wrap;html=1;" vertex="1" parent="XpuTqxb-VDtBdwR817ZW-86">
          <mxGeometry x="287" y="233" width="90" height="20" as="geometry" />
        </mxCell>
        <mxCell id="XpuTqxb-VDtBdwR817ZW-69" value="" style="rounded=0;whiteSpace=wrap;html=1;" vertex="1" parent="XpuTqxb-VDtBdwR817ZW-86">
          <mxGeometry x="287" y="265" width="90" height="20" as="geometry" />
        </mxCell>
        <mxCell id="XpuTqxb-VDtBdwR817ZW-70" value="确认密码" style="text;html=1;strokeColor=none;fillColor=none;align=center;verticalAlign=middle;whiteSpace=wrap;rounded=0;" vertex="1" parent="XpuTqxb-VDtBdwR817ZW-86">
          <mxGeometry x="205" y="260" width="60" height="30" as="geometry" />
        </mxCell>
        <mxCell id="XpuTqxb-VDtBdwR817ZW-71" value="&lt;font color=&quot;#ff0000&quot;&gt;校验码为随机数字图片验证码&lt;/font&gt;" style="text;html=1;strokeColor=none;fillColor=none;align=center;verticalAlign=middle;whiteSpace=wrap;rounded=0;" vertex="1" parent="XpuTqxb-VDtBdwR817ZW-86">
          <mxGeometry x="75" y="180" width="87" height="30" as="geometry" />
        </mxCell>
        <mxCell id="XpuTqxb-VDtBdwR817ZW-74" value="" style="endArrow=classic;html=1;rounded=0;exitX=1;exitY=0.5;exitDx=0;exitDy=0;entryX=0;entryY=0;entryDx=0;entryDy=0;" edge="1" parent="XpuTqxb-VDtBdwR817ZW-86" source="XpuTqxb-VDtBdwR817ZW-71" target="XpuTqxb-VDtBdwR817ZW-45">
          <mxGeometry width="50" height="50" relative="1" as="geometry">
            <mxPoint x="275" y="300" as="sourcePoint" />
            <mxPoint x="325" y="250" as="targetPoint" />
          </mxGeometry>
        </mxCell>
        <mxCell id="XpuTqxb-VDtBdwR817ZW-75" value="&lt;font color=&quot;#ff0000&quot;&gt;验证码为手机/邮箱验证码，要点击获取验证码按钮之后发送，10分钟内有效&lt;/font&gt;" style="text;html=1;strokeColor=none;fillColor=none;align=left;verticalAlign=middle;whiteSpace=wrap;rounded=0;" vertex="1" parent="XpuTqxb-VDtBdwR817ZW-86">
          <mxGeometry x="148.25" y="390" width="150" height="30" as="geometry" />
        </mxCell>
        <mxCell id="XpuTqxb-VDtBdwR817ZW-76" value="" style="endArrow=classic;html=1;rounded=0;exitX=0.424;exitY=-0.051;exitDx=0;exitDy=0;exitPerimeter=0;" edge="1" parent="XpuTqxb-VDtBdwR817ZW-86" source="XpuTqxb-VDtBdwR817ZW-75" target="XpuTqxb-VDtBdwR817ZW-41">
          <mxGeometry width="50" height="50" relative="1" as="geometry">
            <mxPoint x="275" y="300" as="sourcePoint" />
            <mxPoint x="325" y="250" as="targetPoint" />
          </mxGeometry>
        </mxCell>
        <mxCell id="XpuTqxb-VDtBdwR817ZW-77" value="&lt;font color=&quot;#ff0000&quot;&gt;注册成功显示一个小窗口提示注册成功并跳转登陆界面&lt;/font&gt;" style="text;html=1;strokeColor=none;fillColor=none;align=left;verticalAlign=middle;whiteSpace=wrap;rounded=0;" vertex="1" parent="XpuTqxb-VDtBdwR817ZW-86">
          <mxGeometry x="365" y="390" width="120" height="30" as="geometry" />
        </mxCell>
        <mxCell id="XpuTqxb-VDtBdwR817ZW-87" value="" style="group" vertex="1" connectable="0" parent="1">
          <mxGeometry x="70" y="510" width="700" height="440" as="geometry" />
        </mxCell>
        <mxCell id="XpuTqxb-VDtBdwR817ZW-1" value="" style="rounded=0;whiteSpace=wrap;html=1;" vertex="1" parent="XpuTqxb-VDtBdwR817ZW-87">
          <mxGeometry x="10" y="50" width="690" height="390" as="geometry" />
        </mxCell>
        <mxCell id="XpuTqxb-VDtBdwR817ZW-3" value="" style="group" vertex="1" connectable="0" parent="XpuTqxb-VDtBdwR817ZW-87">
          <mxGeometry x="10" y="50" width="690" height="30" as="geometry" />
        </mxCell>
        <mxCell id="XpuTqxb-VDtBdwR817ZW-4" value="" style="rounded=0;whiteSpace=wrap;html=1;" vertex="1" parent="XpuTqxb-VDtBdwR817ZW-3">
          <mxGeometry width="690" height="30" as="geometry" />
        </mxCell>
        <mxCell id="XpuTqxb-VDtBdwR817ZW-5" value="&lt;font style=&quot;font-size: 1px;&quot;&gt;LOGO&lt;/font&gt;" style="rounded=0;whiteSpace=wrap;html=1;" vertex="1" parent="XpuTqxb-VDtBdwR817ZW-3">
          <mxGeometry x="10" y="5" width="50" height="20" as="geometry" />
        </mxCell>
        <mxCell id="XpuTqxb-VDtBdwR817ZW-6" value="&lt;font style=&quot;font-size: 1px;&quot;&gt;充值&lt;/font&gt;" style="rounded=0;whiteSpace=wrap;html=1;" vertex="1" parent="XpuTqxb-VDtBdwR817ZW-3">
          <mxGeometry x="555" y="5" width="50" height="20" as="geometry" />
        </mxCell>
        <mxCell id="XpuTqxb-VDtBdwR817ZW-7" value="&lt;span style=&quot;font-size: 1px;&quot;&gt;余额&lt;/span&gt;" style="rounded=0;whiteSpace=wrap;html=1;" vertex="1" parent="XpuTqxb-VDtBdwR817ZW-3">
          <mxGeometry x="490" y="5" width="50" height="20" as="geometry" />
        </mxCell>
        <mxCell id="XpuTqxb-VDtBdwR817ZW-8" value="&lt;span style=&quot;font-size: 1px;&quot;&gt;注册/登录&lt;/span&gt;" style="rounded=0;whiteSpace=wrap;html=1;" vertex="1" parent="XpuTqxb-VDtBdwR817ZW-3">
          <mxGeometry x="620" y="5" width="60" height="20" as="geometry" />
        </mxCell>
        <mxCell id="XpuTqxb-VDtBdwR817ZW-9" value="" style="ellipse;whiteSpace=wrap;html=1;aspect=fixed;" vertex="1" parent="XpuTqxb-VDtBdwR817ZW-3">
          <mxGeometry x="332.5" y="2.5" width="25" height="25" as="geometry" />
        </mxCell>
        <mxCell id="XpuTqxb-VDtBdwR817ZW-11" value="&lt;font style=&quot;font-size: 33px;&quot;&gt;&lt;b&gt;...&lt;/b&gt;&lt;/font&gt;" style="rounded=0;whiteSpace=wrap;html=1;" vertex="1" parent="XpuTqxb-VDtBdwR817ZW-87">
          <mxGeometry x="50" y="110" width="620" height="290" as="geometry" />
        </mxCell>
        <mxCell id="XpuTqxb-VDtBdwR817ZW-13" value="&lt;font color=&quot;#0000ff&quot;&gt;&lt;span style=&quot;font-size: 17px;&quot;&gt;&lt;b&gt;设置界面&lt;/b&gt;&lt;/span&gt;&lt;/font&gt;" style="text;html=1;strokeColor=none;fillColor=none;align=center;verticalAlign=middle;whiteSpace=wrap;rounded=0;" vertex="1" parent="XpuTqxb-VDtBdwR817ZW-87">
          <mxGeometry width="90" height="30" as="geometry" />
        </mxCell>
        <mxCell id="XpuTqxb-VDtBdwR817ZW-14" value="&lt;font color=&quot;#ff0000&quot;&gt;点击头像出现的界面&lt;/font&gt;" style="text;html=1;strokeColor=none;fillColor=none;align=center;verticalAlign=middle;whiteSpace=wrap;rounded=0;" vertex="1" parent="XpuTqxb-VDtBdwR817ZW-87">
          <mxGeometry x="10" y="20" width="125" height="30" as="geometry" />
        </mxCell>
        <mxCell id="XpuTqxb-VDtBdwR817ZW-15" value="&lt;b&gt;&lt;font style=&quot;font-size: 32px;&quot;&gt;...&lt;/font&gt;&lt;/b&gt;" style="rounded=0;whiteSpace=wrap;html=1;" vertex="1" parent="XpuTqxb-VDtBdwR817ZW-87">
          <mxGeometry x="50" y="110" width="90" height="290" as="geometry" />
        </mxCell>
        <mxCell id="XpuTqxb-VDtBdwR817ZW-16" value="&lt;b&gt;基本信息&lt;/b&gt;" style="rounded=0;whiteSpace=wrap;html=1;" vertex="1" parent="XpuTqxb-VDtBdwR817ZW-87">
          <mxGeometry x="50" y="110" width="90" height="40" as="geometry" />
        </mxCell>
        <mxCell id="XpuTqxb-VDtBdwR817ZW-17" value="&lt;font color=&quot;#ff0000&quot;&gt;基本信息页面需要包含用户的各种基本信息，并且需要支持更换头像操作等等。其他页面待定&lt;/font&gt;" style="text;html=1;strokeColor=none;fillColor=none;align=left;verticalAlign=middle;whiteSpace=wrap;rounded=0;" vertex="1" parent="XpuTqxb-VDtBdwR817ZW-87">
          <mxGeometry x="420" y="150" width="220" height="60" as="geometry" />
        </mxCell>
        <mxCell id="XpuTqxb-VDtBdwR817ZW-88" value="" style="group" vertex="1" connectable="0" parent="1">
          <mxGeometry x="-50" y="10" width="870" height="460" as="geometry" />
        </mxCell>
        <mxCell id="ZgjSSMT6cTCHtLDz8DOs-2" value="" style="rounded=0;whiteSpace=wrap;html=1;" parent="XpuTqxb-VDtBdwR817ZW-88" vertex="1">
          <mxGeometry x="130" y="70" width="690" height="390" as="geometry" />
        </mxCell>
        <mxCell id="ZgjSSMT6cTCHtLDz8DOs-4" value="" style="rounded=0;whiteSpace=wrap;html=1;" parent="XpuTqxb-VDtBdwR817ZW-88" vertex="1">
          <mxGeometry x="130" y="100" width="110" height="360" as="geometry" />
        </mxCell>
        <mxCell id="ZgjSSMT6cTCHtLDz8DOs-6" value="" style="rounded=0;whiteSpace=wrap;html=1;dashed=1;" parent="XpuTqxb-VDtBdwR817ZW-88" vertex="1">
          <mxGeometry x="290" y="150" width="470" height="250" as="geometry" />
        </mxCell>
        <mxCell id="ZgjSSMT6cTCHtLDz8DOs-7" value="视频播放器（应支持GIF）" style="rounded=0;whiteSpace=wrap;html=1;" parent="XpuTqxb-VDtBdwR817ZW-88" vertex="1">
          <mxGeometry x="365" y="180" width="320" height="150" as="geometry" />
        </mxCell>
        <mxCell id="ZgjSSMT6cTCHtLDz8DOs-8" value="视频生成进度条" style="rounded=1;whiteSpace=wrap;html=1;" parent="XpuTqxb-VDtBdwR817ZW-88" vertex="1">
          <mxGeometry x="380" y="340" width="290" height="20" as="geometry" />
        </mxCell>
        <mxCell id="ZgjSSMT6cTCHtLDz8DOs-16" value="尺寸" style="text;html=1;strokeColor=none;fillColor=none;align=center;verticalAlign=middle;whiteSpace=wrap;rounded=0;" parent="XpuTqxb-VDtBdwR817ZW-88" vertex="1">
          <mxGeometry x="130" y="110" width="60" height="30" as="geometry" />
        </mxCell>
        <mxCell id="ZgjSSMT6cTCHtLDz8DOs-22" value="" style="group" parent="XpuTqxb-VDtBdwR817ZW-88" vertex="1" connectable="0">
          <mxGeometry x="180" y="120" width="50" height="10" as="geometry" />
        </mxCell>
        <mxCell id="ZgjSSMT6cTCHtLDz8DOs-17" value="" style="rounded=0;whiteSpace=wrap;html=1;" parent="ZgjSSMT6cTCHtLDz8DOs-22" vertex="1">
          <mxGeometry width="50" height="10" as="geometry" />
        </mxCell>
        <mxCell id="ZgjSSMT6cTCHtLDz8DOs-19" value="" style="whiteSpace=wrap;html=1;aspect=fixed;" parent="ZgjSSMT6cTCHtLDz8DOs-22" vertex="1">
          <mxGeometry x="40" width="10" height="10" as="geometry" />
        </mxCell>
        <mxCell id="ZgjSSMT6cTCHtLDz8DOs-20" value="" style="triangle;whiteSpace=wrap;html=1;rotation=90;" parent="ZgjSSMT6cTCHtLDz8DOs-22" vertex="1">
          <mxGeometry x="42.5" y="2.5" width="5" height="5" as="geometry" />
        </mxCell>
        <mxCell id="ZgjSSMT6cTCHtLDz8DOs-23" value="风格" style="text;html=1;strokeColor=none;fillColor=none;align=center;verticalAlign=middle;whiteSpace=wrap;rounded=0;" parent="XpuTqxb-VDtBdwR817ZW-88" vertex="1">
          <mxGeometry x="130" y="150" width="60" height="30" as="geometry" />
        </mxCell>
        <mxCell id="ZgjSSMT6cTCHtLDz8DOs-24" value="" style="group" parent="XpuTqxb-VDtBdwR817ZW-88" vertex="1" connectable="0">
          <mxGeometry x="180" y="160" width="50" height="10" as="geometry" />
        </mxCell>
        <mxCell id="ZgjSSMT6cTCHtLDz8DOs-25" value="" style="rounded=0;whiteSpace=wrap;html=1;" parent="ZgjSSMT6cTCHtLDz8DOs-24" vertex="1">
          <mxGeometry width="50" height="10" as="geometry" />
        </mxCell>
        <mxCell id="ZgjSSMT6cTCHtLDz8DOs-26" value="" style="whiteSpace=wrap;html=1;aspect=fixed;" parent="ZgjSSMT6cTCHtLDz8DOs-24" vertex="1">
          <mxGeometry x="40" width="10" height="10" as="geometry" />
        </mxCell>
        <mxCell id="ZgjSSMT6cTCHtLDz8DOs-27" value="" style="triangle;whiteSpace=wrap;html=1;rotation=90;" parent="ZgjSSMT6cTCHtLDz8DOs-24" vertex="1">
          <mxGeometry x="42.5" y="2.5" width="5" height="5" as="geometry" />
        </mxCell>
        <mxCell id="ZgjSSMT6cTCHtLDz8DOs-28" value="文本" style="text;html=1;strokeColor=none;fillColor=none;align=center;verticalAlign=middle;whiteSpace=wrap;rounded=0;" parent="XpuTqxb-VDtBdwR817ZW-88" vertex="1">
          <mxGeometry x="130" y="180" width="60" height="30" as="geometry" />
        </mxCell>
        <mxCell id="ZgjSSMT6cTCHtLDz8DOs-29" value="（文本框）" style="whiteSpace=wrap;html=1;aspect=fixed;" parent="XpuTqxb-VDtBdwR817ZW-88" vertex="1">
          <mxGeometry x="140" y="210" width="90" height="90" as="geometry" />
        </mxCell>
        <mxCell id="ZgjSSMT6cTCHtLDz8DOs-30" value="图片" style="text;html=1;strokeColor=none;fillColor=none;align=center;verticalAlign=middle;whiteSpace=wrap;rounded=0;" parent="XpuTqxb-VDtBdwR817ZW-88" vertex="1">
          <mxGeometry x="130" y="300" width="60" height="30" as="geometry" />
        </mxCell>
        <mxCell id="ZgjSSMT6cTCHtLDz8DOs-31" value="" style="whiteSpace=wrap;html=1;aspect=fixed;" parent="XpuTqxb-VDtBdwR817ZW-88" vertex="1">
          <mxGeometry x="140" y="330" width="50" height="50" as="geometry" />
        </mxCell>
        <mxCell id="ZgjSSMT6cTCHtLDz8DOs-32" value="&lt;p&gt;&lt;font style=&quot;font-size: 11px;&quot;&gt;上传&lt;/font&gt;&lt;/p&gt;" style="rounded=0;whiteSpace=wrap;html=1;" parent="XpuTqxb-VDtBdwR817ZW-88" vertex="1">
          <mxGeometry x="150" y="347.5" width="30" height="15" as="geometry" />
        </mxCell>
        <mxCell id="ZgjSSMT6cTCHtLDz8DOs-33" value="高级设置" style="text;html=1;strokeColor=none;fillColor=none;align=center;verticalAlign=middle;whiteSpace=wrap;rounded=0;" parent="XpuTqxb-VDtBdwR817ZW-88" vertex="1">
          <mxGeometry x="140" y="390" width="60" height="30" as="geometry" />
        </mxCell>
        <mxCell id="ZgjSSMT6cTCHtLDz8DOs-34" value="" style="shape=image;html=1;verticalAlign=top;verticalLabelPosition=bottom;labelBackgroundColor=#ffffff;imageAspect=0;aspect=fixed;image=https://cdn3.iconfinder.com/data/icons/user-interface-169/32/plus-128.png" parent="XpuTqxb-VDtBdwR817ZW-88" vertex="1">
          <mxGeometry x="130" y="396" width="18" height="18" as="geometry" />
        </mxCell>
        <mxCell id="ZgjSSMT6cTCHtLDz8DOs-35" value="&lt;font color=&quot;#ff0000&quot;&gt;（点开加号可以展开高级设置）&lt;/font&gt;" style="text;html=1;strokeColor=none;fillColor=none;align=center;verticalAlign=middle;whiteSpace=wrap;rounded=0;" parent="XpuTqxb-VDtBdwR817ZW-88" vertex="1">
          <mxGeometry x="85" y="414" width="170" height="30" as="geometry" />
        </mxCell>
        <mxCell id="ZgjSSMT6cTCHtLDz8DOs-36" value="&lt;font color=&quot;#ff0000&quot;&gt;余额显示还剩多少积分（开局赠送若干积分），充值按钮可以充值获得积分（汇率待定），注册/登录后方可进行生成视频&lt;/font&gt;" style="text;html=1;strokeColor=none;fillColor=none;align=left;verticalAlign=middle;whiteSpace=wrap;rounded=0;" parent="XpuTqxb-VDtBdwR817ZW-88" vertex="1">
          <mxGeometry x="595" width="230" height="70" as="geometry" />
        </mxCell>
        <mxCell id="ZgjSSMT6cTCHtLDz8DOs-37" value="&lt;div style=&quot;&quot;&gt;&lt;font color=&quot;#ff0000&quot;&gt;尺寸下拉框和帧长下拉框应为具体模型所支持的有限的大小，风格为多种类型的视频，文本框中输入文本提示用于输出视频，图片是可选项，用于约束视频生成。普通玩家到这结束，高级设置面向的群体小，点击➕按钮展开，具体细节参考TuneAVideo&lt;/font&gt;&lt;/div&gt;" style="text;html=1;strokeColor=none;fillColor=none;align=left;verticalAlign=middle;whiteSpace=wrap;rounded=0;" parent="XpuTqxb-VDtBdwR817ZW-88" vertex="1">
          <mxGeometry y="120" width="110" height="260" as="geometry" />
        </mxCell>
        <mxCell id="ZgjSSMT6cTCHtLDz8DOs-38" value="帧长" style="text;html=1;strokeColor=none;fillColor=none;align=center;verticalAlign=middle;whiteSpace=wrap;rounded=0;" parent="XpuTqxb-VDtBdwR817ZW-88" vertex="1">
          <mxGeometry x="130" y="130" width="60" height="30" as="geometry" />
        </mxCell>
        <mxCell id="ZgjSSMT6cTCHtLDz8DOs-39" value="" style="group" parent="XpuTqxb-VDtBdwR817ZW-88" vertex="1" connectable="0">
          <mxGeometry x="180" y="140" width="50" height="10" as="geometry" />
        </mxCell>
        <mxCell id="ZgjSSMT6cTCHtLDz8DOs-40" value="" style="rounded=0;whiteSpace=wrap;html=1;" parent="ZgjSSMT6cTCHtLDz8DOs-39" vertex="1">
          <mxGeometry width="50" height="10" as="geometry" />
        </mxCell>
        <mxCell id="ZgjSSMT6cTCHtLDz8DOs-41" value="" style="whiteSpace=wrap;html=1;aspect=fixed;" parent="ZgjSSMT6cTCHtLDz8DOs-39" vertex="1">
          <mxGeometry x="40" width="10" height="10" as="geometry" />
        </mxCell>
        <mxCell id="ZgjSSMT6cTCHtLDz8DOs-42" value="" style="triangle;whiteSpace=wrap;html=1;rotation=90;" parent="ZgjSSMT6cTCHtLDz8DOs-39" vertex="1">
          <mxGeometry x="42.5" y="2.5" width="5" height="5" as="geometry" />
        </mxCell>
        <mxCell id="ZgjSSMT6cTCHtLDz8DOs-44" value="视频生成区域" style="text;html=1;strokeColor=none;fillColor=none;align=center;verticalAlign=middle;whiteSpace=wrap;rounded=0;" parent="XpuTqxb-VDtBdwR817ZW-88" vertex="1">
          <mxGeometry x="487.5" y="150" width="75" height="30" as="geometry" />
        </mxCell>
        <mxCell id="ZgjSSMT6cTCHtLDz8DOs-45" value="&lt;font color=&quot;#ff0000&quot;&gt;视频生成区域的视频播放器应当支持包括GIF的视频，视频生成进度条应该与模型中的视频生成进度相关联。（希望后续加入页面滚动条来记录历史记录，增加用户体验）&lt;/font&gt;" style="text;html=1;strokeColor=none;fillColor=none;align=left;verticalAlign=middle;whiteSpace=wrap;rounded=0;" parent="XpuTqxb-VDtBdwR817ZW-88" vertex="1">
          <mxGeometry x="690" y="160" width="180" height="172" as="geometry" />
        </mxCell>
        <mxCell id="ZgjSSMT6cTCHtLDz8DOs-47" value="&lt;font color=&quot;#ff0000&quot;&gt;登录前头像为空白，登录后头像从头像库中挑选。点开头像后方可进入设置页面，详细请看后面&lt;/font&gt;" style="text;html=1;strokeColor=none;fillColor=none;align=left;verticalAlign=middle;whiteSpace=wrap;rounded=0;" parent="XpuTqxb-VDtBdwR817ZW-88" vertex="1">
          <mxGeometry x="360" y="10" width="140" height="50" as="geometry" />
        </mxCell>
        <mxCell id="XpuTqxb-VDtBdwR817ZW-2" value="" style="group" vertex="1" connectable="0" parent="XpuTqxb-VDtBdwR817ZW-88">
          <mxGeometry x="130" y="70" width="690" height="30" as="geometry" />
        </mxCell>
        <mxCell id="ZgjSSMT6cTCHtLDz8DOs-3" value="" style="rounded=0;whiteSpace=wrap;html=1;" parent="XpuTqxb-VDtBdwR817ZW-2" vertex="1">
          <mxGeometry width="690" height="30" as="geometry" />
        </mxCell>
        <mxCell id="ZgjSSMT6cTCHtLDz8DOs-11" value="&lt;font style=&quot;font-size: 1px;&quot;&gt;LOGO&lt;/font&gt;" style="rounded=0;whiteSpace=wrap;html=1;" parent="XpuTqxb-VDtBdwR817ZW-2" vertex="1">
          <mxGeometry x="10" y="5" width="50" height="20" as="geometry" />
        </mxCell>
        <mxCell id="ZgjSSMT6cTCHtLDz8DOs-13" value="&lt;font style=&quot;font-size: 1px;&quot;&gt;充值&lt;/font&gt;" style="rounded=0;whiteSpace=wrap;html=1;" parent="XpuTqxb-VDtBdwR817ZW-2" vertex="1">
          <mxGeometry x="555" y="5" width="50" height="20" as="geometry" />
        </mxCell>
        <mxCell id="ZgjSSMT6cTCHtLDz8DOs-14" value="&lt;span style=&quot;font-size: 1px;&quot;&gt;余额&lt;/span&gt;" style="rounded=0;whiteSpace=wrap;html=1;" parent="XpuTqxb-VDtBdwR817ZW-2" vertex="1">
          <mxGeometry x="490" y="5" width="50" height="20" as="geometry" />
        </mxCell>
        <mxCell id="ZgjSSMT6cTCHtLDz8DOs-15" value="&lt;span style=&quot;font-size: 1px;&quot;&gt;注册/登录&lt;/span&gt;" style="rounded=0;whiteSpace=wrap;html=1;" parent="XpuTqxb-VDtBdwR817ZW-2" vertex="1">
          <mxGeometry x="620" y="5" width="60" height="20" as="geometry" />
        </mxCell>
        <mxCell id="ZgjSSMT6cTCHtLDz8DOs-46" value="" style="ellipse;whiteSpace=wrap;html=1;aspect=fixed;" parent="XpuTqxb-VDtBdwR817ZW-2" vertex="1">
          <mxGeometry x="332.5" y="2.5" width="25" height="25" as="geometry" />
        </mxCell>
        <mxCell id="XpuTqxb-VDtBdwR817ZW-12" value="&lt;font color=&quot;#0000ff&quot; style=&quot;font-size: 17px;&quot;&gt;&lt;b style=&quot;&quot;&gt;主界面&lt;/b&gt;&lt;/font&gt;" style="text;html=1;strokeColor=none;fillColor=none;align=center;verticalAlign=middle;whiteSpace=wrap;rounded=0;" vertex="1" parent="XpuTqxb-VDtBdwR817ZW-88">
          <mxGeometry x="120" y="20" width="60" height="30" as="geometry" />
        </mxCell>
        <mxCell id="XpuTqxb-VDtBdwR817ZW-89" value="" style="rounded=0;whiteSpace=wrap;html=1;" vertex="1" parent="1">
          <mxGeometry x="77.5" y="2010" width="690" height="390" as="geometry" />
        </mxCell>
        <mxCell id="XpuTqxb-VDtBdwR817ZW-90" value="&lt;font color=&quot;#0000ff&quot;&gt;&lt;span style=&quot;font-size: 17px;&quot;&gt;&lt;b&gt;充值页面&lt;/b&gt;&lt;/span&gt;&lt;/font&gt;" style="text;html=1;strokeColor=none;fillColor=none;align=center;verticalAlign=middle;whiteSpace=wrap;rounded=0;" vertex="1" parent="1">
          <mxGeometry x="77.5" y="1950" width="90" height="30" as="geometry" />
        </mxCell>
        <mxCell id="XpuTqxb-VDtBdwR817ZW-91" value="&lt;font color=&quot;#ff0000&quot;&gt;充值页面自由发挥&lt;/font&gt;" style="text;html=1;strokeColor=none;fillColor=none;align=center;verticalAlign=middle;whiteSpace=wrap;rounded=0;" vertex="1" parent="1">
          <mxGeometry x="147.5" y="2110" width="120" height="30" as="geometry" />
        </mxCell>
      </root>
    </mxGraphModel>
  </diagram>
</mxfile>
